<?xml version="1.0" standalone="no"?><!DOCTYPE svg PUBLIC "-//W3C//DTD SVG 20010904//EN"
 "http://www.w3.org/TR/2001/REC-SVG-20010904/DTD/svg10.dtd"><svg version="1.0" xmlns="http://www.w3.org/2000/svg" width="27" height="27" viewBox="0 0 512 512"><path d="M245 7a248 248 0 1 0 141 460c15-11 10-37-8-42-7-2-13-1-28 7a200 200 0 0 1-124 22c-44-8-80-26-111-57a199 199 0 1 1 284-280 199 199 0 0 1 50 190c-3 14-6 19-11 25a36 36 0 0 1-60-13c-2-6-2-10-2-84l-1-82c-3-9-14-17-23-17-11 0-24 12-24 22 0 2-2 1-7-3-30-19-68-24-101-13-19 5-34 15-49 29-16 17-26 34-32 56-2 10-3 12-2 29 0 18 0 20 2 29a120 120 0 0 0 195 62l3-2 4 6c8 15 25 29 40 35 21 8 43 8 63 0 19-8 35-24 43-42a239 239 0 0 0 15-120A249 249 0 0 0 245 7zm24 178a75 75 0 0 1 51 38c6 13 7 19 7 34 0 11 0 14-2 21-4 11-9 19-19 29-9 9-17 14-28 18-7 2-10 2-21 2-15 0-21-1-34-7-14-7-28-23-34-38-8-20-6-44 5-62 4-8 17-21 25-26 15-9 33-12 50-9z"/></svg>