<?xml version="1.0" standalone="no"?><!DOCTYPE svg PUBLIC "-//W3C//DTD SVG 20010904//EN"
 "http://www.w3.org/TR/2001/REC-SVG-20010904/DTD/svg10.dtd"><svg version="1.0" xmlns="http://www.w3.org/2000/svg" width="25" height="25" viewBox="0 0 512 512"><path d="M330 1a165 165 0 0 0-142 207l2 7-93 94c-52 51-95 95-95 97-2 2-2 9-2 48 0 44 0 46 2 50 1 3 3 5 6 6 4 2 6 2 50 2h46l4-3 15-14c13-13 14-14 12-31l-1-13 17-1c17-2 19-3 23-7 4-3 4-7 6-25l2-14 12 1c13 1 17 1 21-3 5-4 6-7 6-24v-15h15l18-1 19-18 21-20 4-3 10 2a162 162 0 0 0 116-13A165 165 0 0 0 330 1zm74 79c34 13 41 57 12 79-9 6-17 8-28 8-15-1-25-6-34-17-6-8-8-15-9-26 0-7 0-10 2-16 4-12 15-23 27-28 9-3 21-3 30 0z"/></svg>