<?xml version="1.0" standalone="no"?><!DOCTYPE svg PUBLIC "-//W3C//DTD SVG 20010904//EN"
 "http://www.w3.org/TR/2001/REC-SVG-20010904/DTD/svg10.dtd"><svg version="1.0" xmlns="http://www.w3.org/2000/svg" width="25" height="25" viewBox="0 0 512 512"><path d="M216 2c-15 3-25 8-36 17a83 83 0 0 0-26 39c-2 9-2 9-2 39v30l2 4c4 6 9 8 17 8 8 1 13-2 17-8l3-4V99c1-26 1-28 3-33 4-11 13-20 24-24 5-1 12-2 114-2h109l5 3c11 4 20 13 24 24l1 189c1 174 0 184-1 189-4 11-13 20-24 24l-5 3H332c-102 0-109-1-114-2-11-4-20-13-24-24-2-5-2-7-3-33-1-27-1-28-3-31l-6-7c-4-2-6-2-11-2-6 0-7 0-11 2l-6 7c-3 4-3 4-3 34 1 29 1 30 3 39 8 25 29 46 54 54l10 3h228l9-3c25-8 46-29 54-54l2-9 1-190V67l-3-9c-8-26-29-47-55-55l-8-2-112-1c-92 0-113 0-118 2z"/><path d="M235 171c-5 1-9 5-12 8-2 4-3 5-3 11 1 8 2 11 22 30l15 15-122 1H13l-4 3c-6 4-9 9-9 17 0 5 1 7 3 11l7 6 3 2 122 1h122l-15 15c-20 20-21 22-21 31 0 8 2 12 8 17 4 2 5 2 11 2s7 0 11-2a526 526 0 0 0 58-61c6-15 6-29 0-44-4-7-6-9-29-33l-29-28c-4-2-12-4-16-2z"/></svg>