<?xml version="1.0" standalone="no"?><!DOCTYPE svg PUBLIC "-//W3C//DTD SVG 20010904//EN"
 "http://www.w3.org/TR/2001/REC-SVG-20010904/DTD/svg10.dtd"><svg version="1.0" xmlns="http://www.w3.org/2000/svg" width="28" height="28" viewBox="0 0 512 512"><path d="M170 1c-6 1-15 4-21 8-11 7-19 17-23 30-2 6-2 8-3 47l1 45c4 13 19 18 29 9 7-5 6-4 7-50l1-41 2-4 7-6 5-2h111l111 1-57 32c-63 36-66 39-73 52s-7 5-7 145v127h-41l-45-1c-5-1-10-5-12-10-2-4-2-8-2-39l-1-38c-4-7-9-11-17-11-9 0-16 5-18 13-2 6-1 69 1 78 4 19 17 35 37 42 4 1 9 2 51 2l47 1v19l2 24c5 12 15 25 28 31 16 9 34 9 51 1 18-9 121-70 126-74 6-6 12-14 15-23l3-7V47l-3-7c-2-9-8-18-15-24-5-6-11-9-20-13l-6-3H307L170 1z"/><path d="M173 146c-5 2-9 5-11 9s-3 13-1 16c1 1 6 8 13 14l11 12h-71c-72 0-72 0-77 2-10 5-13 19-5 28 5 7 1 6 80 7h72l-11 11-12 14v16c3 6 11 10 17 10 7 0 11-3 40-32 24-25 28-29 29-33 1-5 1-9-2-15-3-4-54-55-58-57-5-3-10-3-14-2z"/></svg>