<?xml version="1.0" standalone="no"?><!DOCTYPE svg PUBLIC "-//W3C//DTD SVG 20010904//EN"
 "http://www.w3.org/TR/2001/REC-SVG-20010904/DTD/svg10.dtd"><svg version="1.0" xmlns="http://www.w3.org/2000/svg" width="27" height="27" viewBox="0 0 512 512"><path d="M234 2c-28 4-52 17-71 37a123 123 0 0 0 79 207c38 3 71-9 98-37 22-21 32-45 35-75 4-40-12-77-42-104-20-16-38-25-62-28-12-2-26-2-37 0zM143 248c-45 5-77 37-91 94-10 39-13 84-6 110a84 84 0 0 0 72 59l144 1h135l8-3c32-8 53-30 61-59 4-16 4-53-1-82-11-65-37-104-79-116-10-3-27-5-32-4s-12 4-27 14c-17 11-19 12-31 17a107 107 0 0 1-79 0c-13-5-14-5-35-18l-22-13h-17z"/></svg>